<?xml version="1.0" standalone="no"?>
<!DOCTYPE svg PUBLIC "-//W3C//DTD SVG 20010904//EN"
 "http://www.w3.org/TR/2001/REC-SVG-20010904/DTD/svg10.dtd">
<svg version="1.0" xmlns="http://www.w3.org/2000/svg"
 width="192.000000pt" height="192.000000pt" viewBox="0 0 192.000000 192.000000"
 preserveAspectRatio="xMidYMid meet">

<g transform="translate(0.000000,192.000000) scale(0.100000,-0.100000)"
fill="#000000" stroke="none">
<path d="M1010 1799 c-211 -25 -424 -140 -557 -299 -66 -80 -135 -211 -162
-310 -33 -117 -38 -110 87 -110 l108 0 13 51 c39 150 167 309 308 382 213 111
476 101 661 -24 51 -35 37 -42 131 64 28 31 51 61 51 66 0 17 -146 101 -227
130 -130 48 -280 66 -413 50z"/>
<path d="M274 788 c38 -236 225 -474 462 -589 131 -64 216 -82 379 -82 152 0
242 17 354 69 87 39 183 105 173 118 -5 6 -35 44 -67 83 -56 69 -60 72 -79 58
-48 -35 -160 -86 -218 -100 -82 -19 -247 -19 -323 0 -207 53 -382 217 -447
418 l-22 67 -109 0 -110 0 7 -42z"/>
</g>
</svg>
