<?xml version="1.0" encoding="utf-8"?>
<!-- Generator: Adobe Illustrator 22.0.0, SVG Export Plug-In . SVG Version: 6.00 Build 0)  -->
<svg version="1.1" id="Layer_1" xmlns="http://www.w3.org/2000/svg" xmlns:xlink="http://www.w3.org/1999/xlink" x="0px" y="0px"
	 viewBox="0 0 50 50" style="enable-background:new 0 0 50 50;" xml:space="preserve">
<g>
	<g>
		<path class="st0" d="M25,23.5c5.1,0,10.2,0,15.3,0c0.8,0,1.3,0.4,1.6,1.1c0.3,0.8-0.3,1.8-1.2,1.9c-0.2,0-0.4,0.1-0.6,0.1
			c-10.1,0-20.3,0-30.4,0c-0.8,0-1.4-0.4-1.6-1.1c-0.3-0.8,0.3-1.8,1.2-1.9c0.2,0,0.4-0.1,0.6-0.1C14.9,23.5,20,23.5,25,23.5z"/>
		<path class="st0" d="M27,15.1c4.5,0,8.9,0,13.4,0c0.8,0,1.5,0.6,1.6,1.4c0.1,0.7-0.5,1.5-1.2,1.7c-0.2,0-0.3,0-0.5,0
			c-8.8,0-17.7,0-26.5,0c-0.8,0-1.4-0.4-1.6-1.1c-0.3-1.2,0.6-2,1.5-2C18.1,15.1,22.5,15.1,27,15.1z"/>
		<path class="st0" d="M31.4,34.9c-3,0-6,0-8.9,0c-0.7,0-1.5-0.4-1.6-1.4c-0.1-0.8,0.4-1.4,1.2-1.6c0.2,0,0.3,0,0.5,0
			c5.9,0,11.8,0,17.8,0c0.9,0,1.5,0.5,1.7,1.4c0.1,0.8-0.6,1.7-1.4,1.7c-1,0-2,0-3.1,0C35.5,34.9,33.4,34.9,31.4,34.9z"/>
	</g>
</g>
</svg>